<svg xmlns="http://www.w3.org/2000/svg" width="435.5" height="435.5" viewBox="0 0 435.5 435.5">
  <g id="Group_992" data-name="Group 992" transform="translate(-1249.6 -322.25)">
    <path id="Path_48" data-name="Path 48" d="M464.48,353.523c-77.247,0-140.043-62.8-140.043-139.912,0-77.247,62.8-140.043,140.043-140.043s140.043,62.8,140.043,140.043c0,77.116-62.8,139.912-140.043,139.912m0-340.123c-110.353,0-200.08,89.727-200.08,200.08,0,110.222,89.727,200.08,200.08,200.08s200.08-89.727,200.08-199.949c0-110.353-89.727-200.212-200.08-200.212" transform="translate(1002.804 326.454)" fill="#2f2446"/>
    <path id="Path_49" data-name="Path 49" d="M468.684,429.325c-116.659,0-211.641-94.982-211.641-211.641S352.026,6.043,468.684,6.043s211.641,94.982,211.641,211.641c0,116.79-94.851,211.641-211.641,211.641M468.684,0C348.478,0,251,97.478,251,217.684,251,338.022,348.478,435.5,468.816,435.5S686.5,338.022,686.5,217.684C686.369,97.478,588.89,0,468.684,0" transform="translate(998.6 322.25)" fill="#2f2446"/>
    <path id="Path_50" data-name="Path 50" d="M416.975,179.8h39.937a1.173,1.173,0,0,1,1.182,1.182V202c0,19.18-.263,26.143-.263,34.551,0,6.437-.788,9.722-3.81,8.276a79,79,0,0,1-16.027-12.086c-6.7-6.569-20.231-26.012-21.02-52.943m19.574-52.943a58.748,58.748,0,0,1,14.977-8.671c6.437-1.576,5.78-1.051,6.174,5.78.394,6.437.394,11.955.394,43.09v4.2c0,1.051-.657,1.182-1.182,1.182H416.975c1.182-21.02,8.933-37.178,19.574-45.586m108.382,58.2c-6.043,0-18.524.657-19.575.657s-13.531-.657-22.465-.657c-2.233,0-3.284.394-3.284,1.576,0,.788.788,1.182,1.576,1.182a55.484,55.484,0,0,1,6.831.525c8.014,2.233,8.933,4.467,8.933,20.494v33.894a7.367,7.367,0,0,1-3.941,6.963c-5.124,3.022-15.5,4.2-22.727,4.2-2.233,0-4.335-.131-6.569-.263h0c-6.043-.788-7.225-2.759-7.751-8.539-1.051-8.408-1.051-24.173-1.051-43.222V166.794c0-31.135,0-36.653.394-43.09.394-6.963,1.971-9.065,7.226-10.116,23.91.657,38.886,8.8,43.616,16.027a31,31,0,0,1,4.2,13.137c.263,1.708.394,3.022,1.445,3.022,1.445,0,1.708-1.051,1.708-4.2,0-19.969,1.445-25.486,1.445-28.245,0-.788-.394-1.576-2.5-1.839a118.19,118.19,0,0,1-16.159-1.971c-3.81-.788-18-3.416-30.478-3.416-15.371,0-35.076,1.445-53.074,12.612-15.5,9.722-29.165,27.982-32.449,53.469H372.439A1.042,1.042,0,0,1,371.257,171v-4.2c0-31.135,0-36.653.394-43.09.394-6.963,1.971-10.378,7.357-11.429a27.884,27.884,0,0,1,4.992-.525c.788,0,1.576-.394,1.576-1.182,0-1.182-1.051-1.576-3.284-1.576-6.043,0-18.524.657-19.443.657-1.051,0-13.531-.657-22.6-.657-2.233,0-3.153.394-3.153,1.576,0,.788.788,1.182,1.576,1.182a55.477,55.477,0,0,1,6.831.525c6.569,1.445,8.145,4.6,8.539,11.429.394,6.437.394,11.955.394,43.09v35.076c0,19.18,0,34.945-1.051,43.222-.788,5.78-1.708,10.247-5.78,11.035a30.433,30.433,0,0,1-6.043.788c-1.182,0-1.577.525-1.577,1.182,0,1.182,1.051,1.576,3.284,1.576,6.043,0,18.524-.525,19.574-.525s13.531.525,24.435.525c2.233,0,3.153-.525,3.153-1.576,0-.657-.394-1.182-1.576-1.182a85.509,85.509,0,0,1-8.933-.788c-6.043-.788-7.225-5.255-7.751-11.035-.92-8.408-.92-24.173-.92-43.222v-21.02c0-1.051.525-1.182,1.182-1.182h27.194c0,1.445-.131,3.022-.131,4.6,0,24.961,11.561,46.243,23.778,56.884,22.071,19.312,50.447,21.282,65.555,21.282,11.561,0,29.559-2.233,42.3-8.933,2.365-1.445,2.628-1.708,2.628-10.773V220.394c0-8.408,0-14.451.394-20.757.394-6.963,1.971-10.378,7.357-11.429a27.882,27.882,0,0,1,4.992-.525c.788,0,1.577-.394,1.577-1.182.131-1.051-.92-1.445-3.153-1.445" transform="translate(1025.612 355.536)" fill="#2f2446"/>
  </g>
</svg>
