<svg xmlns="http://www.w3.org/2000/svg" width="614.557" height="81.705" viewBox="0 0 614.557 81.705">
  <g id="Group_991" data-name="Group 991" transform="translate(600.4 1710.487)">
    <path id="Path_915" data-name="Path 915" d="M69.833,398.7v31.635H12.683V398.7H0v81.336H12.683V442.207H69.833v37.829H82.516V398.7Z" transform="translate(-600.4 -2108.966)" fill="#2f2446"/>
    <path id="Path_916" data-name="Path 916" d="M255.7,448.623,239.924,417.43l-16,31.192ZM235.795,398.7h7.964l41.811,81.336H271.928l-10.545-20.721H218.466l-10.545,20.721H194.5Z" transform="translate(-651.474 -2108.966)" fill="#2f2446"/>
    <path id="Path_917" data-name="Path 917" d="M400.8,398.9h12.683v36.133L456.622,398.9h16.739l-34.142,28.906,39.23,52.282H464.217l-33.995-44.908-16.739,14.306v30.6H400.8Z" transform="translate(-705.646 -2109.019)" fill="#2f2446"/>
    <rect id="Rectangle_232" data-name="Rectangle 232" width="12.905" height="81.705" transform="translate(-163.411 -1710.487)" fill="#2f2446"/>
    <path id="Path_918" data-name="Path 918" d="M791.58,398.7l-33.4,47.563L724.845,398.7H714.3v81.336h12.683v-58.55l31.192,45.277,31.266-45.277v58.55h12.683V398.7Z" transform="translate(-787.969 -2108.966)" fill="#2f2446"/>
  </g>
</svg>
