<svg width="126" height="126" viewBox="0 0 126 126" fill="none" xmlns="http://www.w3.org/2000/svg">
<g clip-path="url(#clip0_187_3)">
<rect width="126" height="126" fill="white"/>
<rect width="126" height="126" rx="9" fill="white"/>
<g clip-path="url(#clip1_187_3)">
<path d="M63.2039 98.6029C56.4382 98.6029 49.8245 96.6 44.1991 92.8474C38.5738 89.0948 34.1895 83.7612 31.6006 77.521C29.0118 71.2808 28.3348 64.4144 29.6552 57.7901C30.9756 51.1657 34.2341 45.0811 39.0186 40.3056C43.8031 35.5301 49.8987 32.2783 56.5345 30.9614C63.1703 29.6445 70.0483 30.3217 76.2986 32.9073C82.5489 35.4929 87.8907 39.8708 91.6486 45.4873C95.4065 51.1038 97.4116 57.7067 97.4103 64.4609C97.3969 73.5129 93.7884 82.1902 87.3762 88.5904C80.964 94.9905 72.2713 98.5912 63.2039 98.6029ZM63.2039 15.6532C53.5358 15.6533 44.0849 18.5154 36.0461 23.8775C28.0074 29.2397 21.7419 36.861 18.0419 45.7779C14.3418 54.6949 13.3735 64.5068 15.2592 73.9731C17.145 83.4394 21.8001 92.1349 28.6361 98.9601C35.472 105.785 44.1818 110.434 53.6639 112.317C63.1461 114.201 72.9748 113.235 81.9073 109.543C90.8398 105.85 98.4749 99.5961 103.847 91.5716C109.219 83.5471 112.087 74.1126 112.089 64.4609C112.074 51.5218 106.919 39.1169 97.7545 29.9671C88.5903 20.8173 76.1649 15.6696 63.2039 15.6532Z" fill="black"/>
<path d="M63.2046 116.064C52.9781 116.064 42.9814 113.037 34.4784 107.365C25.9755 101.693 19.3482 93.6317 15.4347 84.1997C11.5212 74.7677 10.4973 64.3891 12.4924 54.3761C14.4874 44.3632 19.4119 35.1658 26.6431 27.9469C33.8743 20.7279 43.0873 15.8118 53.1173 13.8201C63.1472 11.8284 73.5435 12.8506 82.9915 16.7575C92.4395 20.6643 100.515 27.2803 106.196 35.7689C111.878 44.2574 114.91 54.2372 114.91 64.4463C114.896 78.132 109.444 91.2532 99.7506 100.93C90.0569 110.608 76.9135 116.05 63.2046 116.064ZM63.2046 11.3472C52.6824 11.3459 42.3962 14.4597 33.6468 20.2948C24.8975 26.1299 18.078 34.4241 14.0507 44.1286C10.0235 53.8331 8.96944 64.5118 11.0219 74.8144C13.0744 85.1169 18.1411 94.5804 25.5814 102.008C33.0217 109.436 42.5012 114.494 52.8213 116.543C63.1413 118.592 73.8382 117.54 83.5591 113.519C93.2801 109.499 101.588 102.691 107.433 93.9563C113.278 85.2217 116.398 74.953 116.396 64.4487C116.394 50.366 110.789 36.8608 100.814 26.9028C90.8393 16.9448 77.3112 11.3495 63.2046 11.3472Z" fill="black"/>
<path d="M57.1704 63.3331H66.9403C66.9789 63.3323 67.0173 63.3393 67.0531 63.3537C67.089 63.3681 67.1216 63.3896 67.1489 63.4169C67.1762 63.4442 67.1977 63.4767 67.2122 63.5124C67.2266 63.5482 67.2336 63.5866 67.2328 63.6251V68.736C67.2328 73.4048 67.1556 75.116 67.1556 77.173C67.1556 78.7592 66.966 79.5441 66.2149 79.1791C64.7887 78.3716 63.4735 77.3827 62.3022 76.2373C60.6489 74.6254 57.3465 69.8959 57.1698 63.3366M61.9588 50.3944C63.07 49.5161 64.3025 48.8026 65.6181 48.2761C67.1813 47.8948 67.0275 48.0361 67.1298 49.6702C67.2328 51.2308 67.2328 52.5904 67.2328 60.1741V61.2026C67.2381 61.2422 67.2342 61.2824 67.2213 61.3203C67.2085 61.3581 67.1871 61.3925 67.1588 61.4207C67.1305 61.449 67.0961 61.4703 67.0582 61.4831C67.0203 61.496 66.9799 61.4999 66.9403 61.4946H57.1815C57.4477 56.4059 59.3543 52.4619 61.9605 50.395M88.4283 64.5999C86.9657 64.5999 83.8931 64.7535 83.6492 64.7535C83.4052 64.7535 80.3333 64.5999 78.15 64.5999C77.617 64.5999 77.3637 64.7027 77.3637 64.9941C77.3637 65.1833 77.5532 65.2861 77.7586 65.2861C78.3169 65.2862 78.8743 65.3333 79.4247 65.4269C81.3699 65.9718 81.6104 66.5068 81.6104 70.4385V78.7078C81.6353 79.056 81.5554 79.4037 81.381 79.7063C81.2066 80.0089 80.9457 80.2526 80.6316 80.4062C79.3732 81.1432 76.829 81.4347 75.0786 81.4347C74.5456 81.4347 74.0097 81.409 73.4768 81.3704H73.4639C72.0013 81.1812 71.7088 80.6976 71.5702 79.2907C71.3297 77.2495 71.3297 73.4042 71.3297 68.7354V60.1735C71.3297 52.5886 71.3297 51.2302 71.4327 49.6696C71.5228 47.9812 71.9007 47.4503 73.1878 47.2085C79.0199 47.3721 82.6792 49.3648 83.8504 51.1274C84.4364 52.1049 84.7889 53.2041 84.8807 54.3396C84.9321 54.7723 84.9836 55.0766 85.2241 55.0766C85.5675 55.0766 85.6576 54.8237 85.6576 54.0481C85.6406 51.7425 85.7596 49.4378 86.0139 47.146C86.0139 46.944 85.9109 46.7518 85.4171 46.7004C84.0935 46.6461 82.7765 46.4853 81.4787 46.2198C79.0229 45.7146 76.526 45.4346 74.0191 45.3834C70.2574 45.3834 65.4426 45.7262 61.0579 48.4531C57.2833 50.8114 53.9416 55.2653 53.1167 61.4946H46.2895C46.1356 61.4946 45.997 61.4432 45.997 61.2026V60.1741C45.997 52.5892 45.997 51.2308 46.0871 49.6702C46.19 47.9719 46.5685 47.1455 47.8907 46.892C48.293 46.8139 48.7009 46.7668 49.1105 46.7512C49.3 46.7512 49.5054 46.6484 49.5054 46.4592C49.5054 46.1672 49.2649 46.065 48.7191 46.065C47.2565 46.065 44.1968 46.2186 43.9529 46.2186C43.6996 46.2186 40.637 46.065 38.4384 46.065C37.9055 46.065 37.665 46.1678 37.665 46.4592C37.665 46.6484 37.8546 46.7512 38.0471 46.7512C38.6054 46.7513 39.1628 46.7984 39.7132 46.892C41.315 47.2348 41.7099 48.0197 41.8093 49.6702C41.9123 51.2308 41.9123 52.5904 41.9123 60.1741V68.736C41.9123 73.4048 41.9123 77.2466 41.659 79.2913C41.4695 80.6982 41.2255 81.7781 40.2497 81.9667C39.7704 82.0841 39.2803 82.1518 38.7871 82.1688C38.4946 82.1688 38.3922 82.3095 38.3922 82.4608C38.3922 82.7394 38.6455 82.8422 39.1785 82.8422C40.641 82.8422 43.7007 82.7014 43.9576 82.7014C44.2144 82.7014 47.2606 82.8422 49.9435 82.8422C50.4765 82.8422 50.717 82.7014 50.717 82.4608C50.717 82.3072 50.6268 82.1688 50.3349 82.1688C49.599 82.14 48.8652 82.0726 48.1364 81.9667C46.6738 81.7775 46.3813 80.6976 46.2298 79.2913C46.0016 77.2501 46.0016 73.4048 46.0016 68.736V63.6251C45.9953 63.5853 45.9985 63.5446 46.011 63.5063C46.0235 63.468 46.0448 63.4332 46.0734 63.4047C46.1019 63.3762 46.1368 63.3549 46.1751 63.3425C46.2135 63.33 46.2543 63.3268 46.2942 63.3331H52.9512C52.9383 63.7016 52.9125 64.083 52.9125 64.4609C52.9125 70.5348 55.747 75.7368 58.7189 78.3258C64.121 83.0332 71.0442 83.5237 74.7422 83.5237C77.5638 83.5237 81.9608 82.9917 85.0743 81.3289C85.6593 80.9861 85.7096 80.8962 85.7096 78.7049V73.264C85.7096 71.2228 85.7096 69.7487 85.8126 68.201C85.9156 66.5027 86.2941 65.6634 87.6162 65.4228C88.0186 65.3447 88.4264 65.2976 88.836 65.282C89.0256 65.282 89.2309 65.1792 89.2309 64.99C89.2309 64.698 88.9776 64.5958 88.4446 64.5958" fill="black"/>
</g>
</g>
<defs>
<clipPath id="clip0_187_3">
<rect width="126" height="126" fill="white"/>
</clipPath>
<clipPath id="clip1_187_3">
<rect width="372" height="139" fill="white" transform="translate(10 -9)"/>
</clipPath>
</defs>
</svg>
