<svg xmlns="http://www.w3.org/2000/svg" width="635.87" height="238" viewBox="0 0 635.87 238">
  <g id="Group_363" data-name="Group 363" transform="translate(1444.868 -2191.5)">
    <g id="Group_360" data-name="Group 360" transform="translate(-2684.82 1930.906)">
      <path id="Path_45" data-name="Path 45" d="M347.969,155.469a58.47,58.47,0,1,1,58.47-58.459,58.546,58.546,0,0,1-58.47,58.459m0-142.029a83.559,83.559,0,1,0,83.56,83.57,83.666,83.666,0,0,0-83.56-83.57" transform="translate(982.926 289.366)"/>
      <path id="Path_46" data-name="Path 46" d="M341.894,179.3a88.382,88.382,0,1,1,88.382-88.382A88.472,88.472,0,0,1,341.894,179.3m0-179.3a90.933,90.933,0,1,0,90.922,90.922A90.937,90.937,0,0,0,341.894,0" transform="translate(989.002 295.433)"/>
      <path id="Path_47" data-name="Path 47" d="M370.481,136.955h16.7a.49.49,0,0,1,.5.5v8.751c0,7.994-.132,10.924-.132,14.446,0,2.716-.324,4.06-1.608,3.435a32.4,32.4,0,0,1-6.688-5.037c-2.826-2.76-8.471-10.858-8.773-22.089m8.186-22.16a25.157,25.157,0,0,1,6.255-3.627c2.672-.653,2.409-.411,2.584,2.387.176,2.672.176,5,.176,17.985v1.761a.445.445,0,0,1-.5.5H370.5c.455-8.713,3.714-15.466,8.169-19.005m45.242,24.322c-2.5,0-7.752.263-8.169.263s-5.668-.263-9.4-.263c-.911,0-1.344.176-1.344.675,0,.324.324.5.675.5a16.985,16.985,0,0,1,2.848.241c3.325.933,3.736,1.849,3.736,8.581V163.28a3,3,0,0,1-1.673,2.908c-2.151,1.262-6.5,1.761-9.492,1.761-.911,0-1.827-.044-2.738-.11h-.022c-2.5-.324-3-1.152-3.237-3.561-.411-3.495-.411-10.079-.411-18.073v-14.66c0-12.987,0-15.313.176-17.985.154-2.891.8-3.8,3-4.214,9.969.28,16.224,3.692,18.226,6.71a12.7,12.7,0,0,1,1.761,5.5c.088.741.176,1.262.587,1.262.587,0,.741-.433.741-1.761a100.654,100.654,0,0,1,.609-11.818c0-.346-.176-.675-1.02-.763a42.15,42.15,0,0,1-6.732-.823,70.308,70.308,0,0,0-12.751-1.432c-6.43,0-14.66.587-22.155,5.256-6.452,4.038-12.164,11.664-13.574,22.33H351.882c-.263,0-.5-.088-.5-.5v-1.761c0-12.987,0-15.313.154-17.985.176-2.908.823-4.323,3.083-4.757a13.645,13.645,0,0,1,2.085-.241c.324,0,.675-.176.675-.5,0-.5-.411-.675-1.344-.675-2.5,0-7.73.263-8.147.263-.433,0-5.668-.263-9.426-.263-.911,0-1.322.176-1.322.675,0,.324.324.5.653.5a16.987,16.987,0,0,1,2.848.241c2.738.587,3.413,1.931,3.583,4.757.176,2.672.176,5,.176,17.985v14.66c0,7.994,0,14.572-.433,18.073-.324,2.409-.741,4.258-2.409,4.581a12.257,12.257,0,0,1-2.5.346c-.5,0-.675.241-.675.5,0,.477.433.653,1.344.653,2.5,0,7.73-.241,8.169-.241s5.646.241,10.232.241c.911,0,1.322-.241,1.322-.653,0-.263-.154-.5-.653-.5a35.817,35.817,0,0,1-3.758-.346c-2.5-.324-3-2.173-3.259-4.581-.39-3.495-.39-10.079-.39-18.073v-8.751a.437.437,0,0,1,.5-.5h11.379c-.022.631-.066,1.284-.066,1.931,0,10.4,4.845,19.307,9.925,23.74,9.234,8.06,21.068,8.9,27.389,8.9,4.823,0,12.339-.911,17.661-3.758,1-.587,1.086-.741,1.086-4.493v-9.316c0-3.495,0-6.019.176-8.669.176-2.908.823-4.345,3.083-4.757a13.644,13.644,0,0,1,2.085-.241c.324,0,.675-.176.675-.5,0-.5-.433-.675-1.344-.675" transform="translate(950.1 247.49)"/>
    </g>
    <g id="Group_361" data-name="Group 361" transform="translate(-1034.998 2404.206)">
      <text id="Planner" transform="translate(-73 -15)" fill="#ee5ba1" font-size="96" font-family="BebasNeuePro-Book, Bebas Neue Pro" letter-spacing="-0.009em"><tspan x="0" y="0">Planner</tspan></text>
    </g>
    <g id="Group_362" data-name="Group 362" transform="translate(-1107.998 2212.794)">
      <text id="Marketing" transform="translate(0 96)" font-size="96" font-family="BebasNeuePro-Bold, Bebas Neue Pro" font-weight="700" letter-spacing="-0.008em"><tspan x="0" y="0">Marketing</tspan></text>
    </g>
    <line id="Line_1" data-name="Line 1" y2="238" transform="translate(-1185.5 2191.5)" fill="none" stroke="#000" stroke-width="3"/>
  </g>
</svg>
